<?xml version="1.0" encoding="utf-8"?>
<!-- Generator: Adobe Illustrator 27.1.1, SVG Export Plug-In . SVG Version: 6.00 Build 0)  -->
<svg version="1.1" id="Layer_1" xmlns="http://www.w3.org/2000/svg" xmlns:xlink="http://www.w3.org/1999/xlink" x="0px" y="0px"
	 viewBox="0 0 400 225" style="enable-background:new 0 0 400 225;" xml:space="preserve">
<style type="text/css">
	.st0{fill:none;stroke:#C9C9C9;stroke-width:2;stroke-opacity:0.1;}
	.st1{fill:#C9C9C9;fill-opacity:0.1;}
	.st2{fill:none;stroke:#C9C9C9;stroke-miterlimit:10;stroke-opacity:0.1;}
	.st3{fill-rule:evenodd;clip-rule:evenodd;}
	.st4{fill:url(#SVGID_1_);}
</style>
<g>
	<path class="st0" d="M43.31,69.3h40.85c6.41,0,11.61,5.2,11.61,11.61v42.16c0,6.41-5.2,11.61-11.61,11.61H43.31
		c-6.41,0-11.61-5.2-11.61-11.61V80.91C31.71,74.5,36.9,69.3,43.31,69.3z"/>
	<path class="st1" d="M175.67,57.83h52.88c9.32,0,16.87,7.55,16.87,16.87v54.58c0,9.32-7.55,16.87-16.87,16.87h-52.88
		c-9.32,0-16.87-7.55-16.87-16.87V74.7C158.81,65.38,166.36,57.83,175.67,57.83z"/>
	<path class="st2" d="M320.68,69.3h40.85c6.41,0,11.61,5.2,11.61,11.61v42.16c0,6.41-5.2,11.61-11.61,11.61h-40.85
		c-6.41,0-11.61-5.2-11.61-11.61V80.91C309.07,74.5,314.27,69.3,320.68,69.3z"/>
	<path d="M79.11,111.99h-1.62V91.36c0-0.35-0.28-0.62-0.62-0.62h-2.88v1.25h2.25v20h-25v-20h2.25v-1.25h-2.88
		c-0.34,0-0.62,0.27-0.62,0.62v20.62h-1.62c-0.34,0-0.62,0.27-0.62,0.62c0,2.41,1.96,4.38,4.38,4.38h23.25
		c2.41,0,4.38-1.96,4.38-4.38C79.74,112.26,79.46,111.99,79.11,111.99z"/>
	<path class="st3" d="M354.72,107.68c1.45,0,2.63,1.18,2.63,2.63s-1.18,2.63-2.63,2.63c-1.45,0-2.63-1.18-2.63-2.63
		S353.27,107.68,354.72,107.68z M334.28,110.3c0,1.45,1.18,2.63,2.63,2.63c1.45,0,2.63-1.18,2.63-2.63s-1.18-2.63-2.63-2.63
		C335.46,107.68,334.28,108.85,334.28,110.3z M321.11,95.21c0-0.47,0.38-0.84,0.84-0.84h6.38v-3.32h18.95v18.45h-6.14
		c-0.38-1.99-2.13-3.5-4.24-3.5c-2.11,0-3.86,1.51-4.24,3.5h-4.34v-5.01h4.31c0.47,0,0.84-0.38,0.84-0.84
		c0-0.47-0.38-0.84-0.84-0.84h-6.25c-0.47,0-0.84-0.38-0.84-0.84c0-0.47,0.38-0.84,0.84-0.84h5.24c0.47,0,0.84-0.38,0.84-0.84
		c0-0.47-0.38-0.84-0.84-0.84h-3.23c-0.47,0-0.84-0.38-0.84-0.84c0-0.47,0.38-0.84,0.84-0.84h4.24c0.47,0,0.84-0.38,0.84-0.84
		c0-0.47-0.38-0.84-0.84-0.84h-10.69C321.48,96.05,321.11,95.68,321.11,95.21L321.11,95.21z M339.93,105.3
		c2.78,0,5.03-2.25,5.03-5.03c0-2.78-2.25-5.03-5.03-5.03s-5.03,2.25-5.03,5.03C334.9,103.05,337.15,105.3,339.93,105.3z
		 M323.1,98.58c0,0.47,0.38,0.84,0.84,0.84h1.3c0.47,0,0.84-0.38,0.84-0.84c0-0.47-0.38-0.84-0.84-0.84h-1.3
		C323.48,97.74,323.1,98.12,323.1,98.58z M356.19,94.67c0.45,0,0.84,0.21,1.1,0.58l3.62,5.38c0.13,0.2,0.2,0.4,0.2,0.64v3.94h-1.73
		v1.69h1.73v1.92c0,0.37-0.3,0.66-0.66,0.66h-1.49c-0.38-1.99-2.13-3.5-4.24-3.5c-2.11,0-3.86,1.51-4.24,3.5h-1.51V94.67
		L356.19,94.67L356.19,94.67z M351.12,96.81v3.05h6.84l-2.05-3.05H351.12z M342.29,97.83l-3.1,3.03l-1.22-1.5
		c-0.29-0.36-0.83-0.41-1.19-0.12c-0.36,0.29-0.41,0.83-0.12,1.19l1.8,2.21c0.15,0.18,0.37,0.29,0.61,0.31
		c0.24,0.01,0.47-0.07,0.64-0.24l3.76-3.68c0.33-0.33,0.34-0.86,0.01-1.19C343.15,97.51,342.62,97.5,342.29,97.83L342.29,97.83z"/>
	<g>
		<g>
			<path d="M311.48,156.29c-0.31,0-0.61-0.05-0.9-0.15c-0.29-0.1-0.51-0.23-0.66-0.39l0.17-0.34c0.15,0.14,0.35,0.26,0.6,0.36
				c0.25,0.1,0.51,0.15,0.79,0.15c0.26,0,0.48-0.03,0.65-0.1c0.17-0.07,0.29-0.15,0.37-0.27s0.12-0.24,0.12-0.37
				c0-0.16-0.05-0.3-0.14-0.4c-0.09-0.1-0.22-0.18-0.37-0.24c-0.15-0.06-0.32-0.11-0.5-0.15c-0.18-0.04-0.37-0.09-0.55-0.14
				c-0.18-0.05-0.35-0.12-0.51-0.2c-0.15-0.08-0.28-0.2-0.37-0.33s-0.14-0.32-0.14-0.54c0-0.21,0.06-0.4,0.17-0.57
				c0.11-0.17,0.28-0.31,0.51-0.42c0.23-0.11,0.52-0.16,0.88-0.16c0.24,0,0.47,0.03,0.7,0.1c0.23,0.07,0.43,0.16,0.6,0.27
				l-0.15,0.35c-0.18-0.12-0.37-0.21-0.57-0.26c-0.2-0.06-0.4-0.08-0.59-0.08c-0.25,0-0.46,0.03-0.62,0.1s-0.28,0.16-0.36,0.27
				c-0.08,0.11-0.12,0.24-0.12,0.39c0,0.16,0.05,0.3,0.14,0.4c0.09,0.1,0.22,0.18,0.37,0.23c0.15,0.06,0.32,0.11,0.51,0.15
				c0.18,0.04,0.37,0.09,0.55,0.14c0.18,0.05,0.35,0.12,0.5,0.2c0.15,0.08,0.28,0.19,0.37,0.33c0.09,0.14,0.14,0.31,0.14,0.53
				c0,0.2-0.06,0.39-0.17,0.57s-0.28,0.31-0.51,0.42C312.14,156.24,311.84,156.29,311.48,156.29z"/>
			<path d="M313.43,153.46v-0.35h1.95v0.35H313.43z M314.92,156.29c-0.3,0-0.52-0.08-0.68-0.24c-0.16-0.16-0.24-0.39-0.24-0.68
				v-2.96h0.43v2.93c0,0.18,0.05,0.33,0.14,0.43c0.09,0.1,0.23,0.15,0.41,0.15c0.19,0,0.34-0.05,0.47-0.16l0.15,0.31
				c-0.08,0.08-0.19,0.13-0.3,0.17C315.17,156.27,315.04,156.29,314.92,156.29z"/>
			<path d="M317.7,156.29c-0.33,0-0.62-0.07-0.86-0.21c-0.25-0.14-0.44-0.33-0.58-0.57c-0.14-0.24-0.21-0.52-0.21-0.83
				c0-0.31,0.07-0.59,0.2-0.83c0.13-0.24,0.32-0.43,0.55-0.57c0.23-0.14,0.5-0.21,0.79-0.21c0.3,0,0.56,0.07,0.79,0.2
				c0.23,0.13,0.41,0.32,0.54,0.56s0.2,0.52,0.2,0.84c0,0.02,0,0.04,0,0.06c0,0.02,0,0.04,0,0.07h-2.74v-0.32h2.51l-0.17,0.13
				c0-0.23-0.05-0.43-0.15-0.61c-0.1-0.18-0.23-0.32-0.4-0.42s-0.36-0.15-0.58-0.15c-0.22,0-0.41,0.05-0.58,0.15
				s-0.31,0.24-0.4,0.42c-0.1,0.18-0.14,0.39-0.14,0.62v0.07c0,0.24,0.05,0.45,0.16,0.63c0.11,0.18,0.25,0.32,0.44,0.43
				c0.19,0.1,0.41,0.15,0.65,0.15c0.19,0,0.37-0.03,0.54-0.1c0.17-0.07,0.31-0.17,0.43-0.31l0.24,0.28
				c-0.14,0.17-0.32,0.3-0.53,0.38S317.95,156.29,317.7,156.29z"/>
			<path d="M319.99,157.42v-4.31h0.41v0.95l-0.04,0.63l0.06,0.64v2.1H319.99z M321.61,156.29c-0.27,0-0.52-0.06-0.74-0.19
				s-0.4-0.31-0.53-0.55s-0.19-0.53-0.19-0.87s0.06-0.63,0.19-0.87c0.13-0.24,0.3-0.42,0.52-0.54c0.22-0.12,0.47-0.19,0.74-0.19
				c0.3,0,0.57,0.07,0.81,0.2c0.24,0.13,0.42,0.32,0.56,0.56c0.14,0.24,0.2,0.52,0.2,0.84c0,0.32-0.07,0.6-0.2,0.84
				c-0.14,0.24-0.32,0.43-0.56,0.56S321.91,156.29,321.61,156.29z M321.58,155.91c0.22,0,0.42-0.05,0.6-0.15s0.32-0.25,0.42-0.43
				c0.1-0.19,0.16-0.4,0.16-0.65s-0.05-0.46-0.16-0.64c-0.1-0.18-0.24-0.33-0.42-0.43c-0.18-0.1-0.38-0.16-0.6-0.16
				c-0.22,0-0.42,0.05-0.6,0.16c-0.18,0.1-0.32,0.25-0.42,0.43c-0.1,0.18-0.15,0.4-0.15,0.64s0.05,0.46,0.15,0.65
				c0.1,0.19,0.24,0.33,0.42,0.43C321.16,155.86,321.36,155.91,321.58,155.91z"/>
			<path d="M326.6,156.29c-0.3,0-0.59-0.05-0.86-0.15c-0.27-0.1-0.49-0.23-0.65-0.39l0.21-0.34c0.14,0.14,0.32,0.26,0.55,0.35
				c0.23,0.09,0.48,0.14,0.75,0.14c0.35,0,0.62-0.08,0.8-0.23c0.19-0.15,0.28-0.36,0.28-0.61s-0.09-0.46-0.27-0.61
				c-0.18-0.15-0.47-0.23-0.86-0.23h-0.3v-0.32l1.3-1.63l0.06,0.17h-2.34v-0.38h2.7v0.31l-1.3,1.63l-0.21-0.14h0.16
				c0.5,0,0.88,0.11,1.13,0.34c0.25,0.22,0.38,0.51,0.38,0.86c0,0.24-0.06,0.45-0.17,0.64c-0.11,0.19-0.28,0.34-0.51,0.44
				C327.22,156.24,326.94,156.29,326.6,156.29z"/>
			<path d="M329.05,153.73c-0.09,0-0.16-0.03-0.22-0.1c-0.06-0.06-0.09-0.14-0.09-0.23c0-0.1,0.03-0.17,0.09-0.23
				c0.06-0.06,0.14-0.09,0.22-0.09s0.16,0.03,0.22,0.09c0.06,0.06,0.09,0.14,0.09,0.23c0,0.09-0.03,0.17-0.09,0.23
				C329.21,153.7,329.14,153.73,329.05,153.73z M329.05,156.29c-0.09,0-0.16-0.03-0.22-0.1c-0.06-0.06-0.09-0.14-0.09-0.23
				c0-0.1,0.03-0.17,0.09-0.23c0.06-0.06,0.14-0.09,0.22-0.09s0.16,0.03,0.22,0.09c0.06,0.06,0.09,0.14,0.09,0.23
				c0,0.09-0.03,0.17-0.09,0.23C329.21,156.25,329.14,156.29,329.05,156.29z"/>
			<path d="M332.39,156.25h-0.44v-4.2h2.88v0.38h-2.44V156.25z M332.34,154.09h2.22v0.38h-2.22V154.09z"/>
			<path d="M336.54,156.29c-0.24,0-0.44-0.04-0.62-0.12s-0.31-0.19-0.4-0.32c-0.09-0.14-0.14-0.3-0.14-0.48
				c0-0.16,0.04-0.31,0.12-0.45s0.21-0.24,0.38-0.32s0.42-0.12,0.72-0.12h1.09v0.32h-1.07c-0.3,0-0.52,0.05-0.63,0.16
				c-0.12,0.11-0.18,0.24-0.18,0.4c0,0.18,0.07,0.32,0.21,0.43c0.14,0.11,0.34,0.16,0.59,0.16c0.24,0,0.45-0.06,0.62-0.17
				c0.17-0.11,0.3-0.27,0.38-0.48l0.1,0.29c-0.08,0.21-0.22,0.37-0.42,0.5C337.09,156.22,336.84,156.29,336.54,156.29z
				 M337.62,156.25v-0.7l-0.02-0.11v-1.16c0-0.27-0.07-0.47-0.22-0.62c-0.15-0.14-0.37-0.22-0.67-0.22c-0.2,0-0.4,0.03-0.58,0.1
				s-0.34,0.16-0.47,0.27l-0.19-0.32c0.16-0.14,0.35-0.24,0.58-0.32c0.22-0.07,0.46-0.11,0.71-0.11c0.41,0,0.72,0.1,0.95,0.3
				c0.22,0.2,0.33,0.51,0.33,0.92v1.96H337.62z"/>
			<path d="M340.04,156.29c-0.26,0-0.51-0.04-0.74-0.11s-0.41-0.17-0.55-0.28l0.19-0.34c0.13,0.1,0.29,0.18,0.49,0.25
				c0.2,0.07,0.41,0.11,0.63,0.11c0.3,0,0.52-0.05,0.65-0.14c0.13-0.09,0.2-0.22,0.2-0.38c0-0.12-0.04-0.21-0.11-0.27
				c-0.07-0.07-0.17-0.12-0.29-0.15c-0.12-0.03-0.25-0.06-0.4-0.09c-0.15-0.02-0.3-0.05-0.44-0.08c-0.15-0.03-0.28-0.08-0.4-0.14
				c-0.12-0.06-0.22-0.15-0.29-0.25c-0.07-0.11-0.11-0.25-0.11-0.43c0-0.17,0.05-0.33,0.14-0.46s0.24-0.24,0.42-0.32
				c0.19-0.08,0.41-0.12,0.68-0.12c0.2,0,0.41,0.03,0.61,0.08c0.2,0.05,0.37,0.12,0.5,0.21l-0.19,0.34
				c-0.14-0.1-0.29-0.17-0.45-0.21s-0.32-0.06-0.48-0.06c-0.28,0-0.49,0.05-0.63,0.15c-0.13,0.1-0.2,0.22-0.2,0.38
				c0,0.12,0.04,0.21,0.11,0.28c0.07,0.07,0.17,0.12,0.29,0.16c0.12,0.04,0.26,0.07,0.4,0.09c0.15,0.02,0.29,0.05,0.44,0.09
				c0.15,0.03,0.28,0.08,0.4,0.14c0.12,0.06,0.22,0.14,0.29,0.25c0.07,0.11,0.11,0.25,0.11,0.42c0,0.18-0.05,0.34-0.15,0.48
				c-0.1,0.13-0.25,0.24-0.44,0.31C340.55,156.25,340.31,156.29,340.04,156.29z"/>
			<path d="M341.63,153.46v-0.35h1.95v0.35H341.63z M343.11,156.29c-0.3,0-0.52-0.08-0.68-0.24s-0.24-0.39-0.24-0.68v-2.96h0.43
				v2.93c0,0.18,0.05,0.33,0.14,0.43c0.09,0.1,0.23,0.15,0.41,0.15c0.19,0,0.34-0.05,0.47-0.16l0.15,0.31
				c-0.08,0.08-0.18,0.13-0.3,0.17C343.36,156.27,343.24,156.29,343.11,156.29z"/>
			<path d="M347.38,156.29c-0.31,0-0.61-0.05-0.9-0.15c-0.29-0.1-0.51-0.23-0.66-0.39l0.17-0.34c0.15,0.14,0.35,0.26,0.6,0.36
				c0.25,0.1,0.51,0.15,0.79,0.15c0.26,0,0.48-0.03,0.64-0.1c0.17-0.07,0.29-0.15,0.37-0.27s0.12-0.24,0.12-0.37
				c0-0.16-0.05-0.3-0.14-0.4c-0.09-0.1-0.22-0.18-0.37-0.24c-0.15-0.06-0.32-0.11-0.5-0.15c-0.18-0.04-0.37-0.09-0.55-0.14
				c-0.18-0.05-0.35-0.12-0.51-0.2c-0.15-0.08-0.28-0.2-0.37-0.33c-0.09-0.14-0.14-0.32-0.14-0.54c0-0.21,0.05-0.4,0.17-0.57
				s0.28-0.31,0.51-0.42c0.23-0.11,0.52-0.16,0.88-0.16c0.24,0,0.47,0.03,0.7,0.1c0.23,0.07,0.43,0.16,0.6,0.27l-0.15,0.35
				c-0.18-0.12-0.37-0.21-0.57-0.26c-0.2-0.06-0.4-0.08-0.58-0.08c-0.25,0-0.46,0.03-0.62,0.1s-0.29,0.16-0.36,0.27
				c-0.08,0.11-0.12,0.24-0.12,0.39c0,0.16,0.05,0.3,0.14,0.4c0.09,0.1,0.22,0.18,0.37,0.23c0.15,0.06,0.32,0.11,0.51,0.15
				c0.18,0.04,0.37,0.09,0.55,0.14s0.35,0.12,0.5,0.2c0.15,0.08,0.28,0.19,0.37,0.33c0.09,0.14,0.14,0.31,0.14,0.53
				c0,0.2-0.06,0.39-0.17,0.57c-0.11,0.17-0.28,0.31-0.51,0.42C348.03,156.24,347.74,156.29,347.38,156.29z"/>
			<path d="M351.42,153.08c0.26,0,0.48,0.05,0.67,0.15c0.19,0.1,0.35,0.25,0.46,0.45c0.11,0.2,0.17,0.45,0.17,0.76v1.83h-0.43v-1.79
				c0-0.33-0.08-0.58-0.25-0.75s-0.4-0.25-0.7-0.25c-0.22,0-0.42,0.04-0.58,0.13s-0.29,0.22-0.38,0.39
				c-0.09,0.17-0.13,0.38-0.13,0.62v1.66h-0.43v-4.45h0.43v2.17l-0.08-0.16c0.1-0.23,0.26-0.41,0.48-0.54
				C350.86,153.14,351.12,153.08,351.42,153.08z"/>
			<path d="M354.09,152.41c-0.09,0-0.16-0.03-0.22-0.09c-0.06-0.06-0.09-0.13-0.09-0.22s0.03-0.15,0.09-0.21
				c0.06-0.06,0.13-0.09,0.22-0.09s0.16,0.03,0.22,0.08c0.06,0.06,0.09,0.13,0.09,0.21c0,0.09-0.03,0.16-0.09,0.22
				C354.26,152.38,354.18,152.41,354.09,152.41z M353.87,156.25v-3.15h0.43v3.15H353.87z"/>
			<path d="M355.49,157.42v-4.31h0.41v0.95l-0.04,0.63l0.06,0.64v2.1H355.49z M357.11,156.29c-0.27,0-0.52-0.06-0.74-0.19
				s-0.4-0.31-0.53-0.55s-0.19-0.53-0.19-0.87s0.06-0.63,0.19-0.87c0.13-0.24,0.3-0.42,0.52-0.54c0.22-0.12,0.47-0.19,0.74-0.19
				c0.3,0,0.57,0.07,0.81,0.2c0.24,0.13,0.42,0.32,0.56,0.56c0.14,0.24,0.2,0.52,0.2,0.84c0,0.32-0.07,0.6-0.2,0.84
				c-0.14,0.24-0.32,0.43-0.56,0.56S357.41,156.29,357.11,156.29z M357.08,155.91c0.22,0,0.42-0.05,0.6-0.15s0.32-0.25,0.42-0.43
				c0.1-0.19,0.16-0.4,0.16-0.65s-0.05-0.46-0.16-0.64c-0.1-0.18-0.24-0.33-0.42-0.43c-0.18-0.1-0.38-0.16-0.6-0.16
				c-0.22,0-0.42,0.05-0.6,0.16c-0.18,0.1-0.32,0.25-0.42,0.43c-0.1,0.18-0.15,0.4-0.15,0.64s0.05,0.46,0.15,0.65
				c0.1,0.19,0.24,0.33,0.42,0.43C356.66,155.86,356.86,155.91,357.08,155.91z"/>
			<path d="M359.55,157.42v-4.31h0.41v0.95l-0.04,0.63l0.06,0.64v2.1H359.55z M361.18,156.29c-0.27,0-0.52-0.06-0.74-0.19
				c-0.22-0.13-0.39-0.31-0.52-0.55s-0.2-0.53-0.2-0.87s0.06-0.63,0.19-0.87c0.13-0.24,0.3-0.42,0.52-0.54s0.47-0.19,0.74-0.19
				c0.3,0,0.57,0.07,0.81,0.2c0.24,0.13,0.43,0.32,0.56,0.56s0.2,0.52,0.2,0.84c0,0.32-0.07,0.6-0.2,0.84
				c-0.14,0.24-0.32,0.43-0.56,0.56C361.75,156.22,361.48,156.29,361.18,156.29z M361.15,155.91c0.22,0,0.42-0.05,0.6-0.15
				c0.18-0.1,0.32-0.25,0.42-0.43c0.1-0.19,0.16-0.4,0.16-0.65s-0.05-0.46-0.16-0.64c-0.1-0.18-0.24-0.33-0.42-0.43
				c-0.18-0.1-0.38-0.16-0.6-0.16c-0.22,0-0.42,0.05-0.6,0.16c-0.18,0.1-0.32,0.25-0.42,0.43c-0.1,0.18-0.15,0.4-0.15,0.64
				s0.05,0.46,0.15,0.65c0.1,0.19,0.24,0.33,0.42,0.43S360.93,155.91,361.15,155.91z"/>
			<path d="M363.84,152.41c-0.09,0-0.16-0.03-0.22-0.09c-0.06-0.06-0.09-0.13-0.09-0.22s0.03-0.15,0.09-0.21
				c0.06-0.06,0.13-0.09,0.22-0.09s0.16,0.03,0.22,0.08c0.06,0.06,0.09,0.13,0.09,0.21c0,0.09-0.03,0.16-0.09,0.22
				C364.01,152.38,363.93,152.41,363.84,152.41z M363.62,156.25v-3.15h0.43v3.15H363.62z"/>
			<path d="M366.84,153.08c0.26,0,0.48,0.05,0.67,0.15c0.19,0.1,0.35,0.25,0.46,0.45c0.11,0.2,0.17,0.45,0.17,0.76v1.83h-0.43v-1.79
				c0-0.33-0.08-0.58-0.25-0.75s-0.4-0.25-0.7-0.25c-0.22,0-0.42,0.04-0.58,0.13s-0.29,0.22-0.38,0.39
				c-0.09,0.17-0.13,0.38-0.13,0.62v1.66h-0.43v-3.15h0.41v0.86l-0.07-0.16c0.1-0.23,0.26-0.41,0.48-0.54
				C366.28,153.14,366.54,153.08,366.84,153.08z"/>
			<path d="M370.56,156.13c-0.3,0-0.57-0.06-0.81-0.2c-0.24-0.13-0.43-0.31-0.57-0.54c-0.14-0.23-0.21-0.5-0.21-0.8
				s0.07-0.56,0.21-0.79c0.14-0.23,0.33-0.41,0.57-0.54s0.51-0.19,0.81-0.19c0.28,0,0.53,0.06,0.76,0.17
				c0.22,0.12,0.4,0.29,0.53,0.52c0.13,0.23,0.2,0.51,0.2,0.83s-0.07,0.61-0.2,0.83c-0.13,0.23-0.31,0.4-0.53,0.52
				C371.09,156.08,370.84,156.13,370.56,156.13z M370.64,157.45c-0.29,0-0.56-0.04-0.83-0.13c-0.26-0.08-0.48-0.2-0.64-0.36
				l0.22-0.32c0.15,0.13,0.33,0.24,0.55,0.32c0.22,0.08,0.45,0.12,0.69,0.12c0.4,0,0.69-0.09,0.88-0.28
				c0.19-0.19,0.28-0.48,0.28-0.87v-0.79l0.06-0.54l-0.04-0.54v-0.95h0.41v2.77c0,0.54-0.13,0.94-0.4,1.2
				C371.55,157.32,371.16,157.45,370.64,157.45z M370.6,155.76c0.23,0,0.44-0.05,0.62-0.15c0.18-0.1,0.32-0.23,0.43-0.41
				c0.1-0.17,0.16-0.38,0.16-0.6c0-0.23-0.05-0.43-0.16-0.6c-0.1-0.17-0.25-0.31-0.43-0.41c-0.18-0.1-0.39-0.15-0.62-0.15
				c-0.23,0-0.43,0.05-0.61,0.15c-0.18,0.1-0.32,0.23-0.43,0.41c-0.1,0.17-0.15,0.37-0.15,0.6c0,0.23,0.05,0.43,0.15,0.6
				c0.1,0.17,0.24,0.31,0.43,0.41C370.17,155.71,370.37,155.76,370.6,155.76z"/>
		</g>
	</g>
	<g>
		
			<linearGradient id="SVGID_1_" gradientUnits="userSpaceOnUse" x1="213.2353" y1="117.8358" x2="213.2581" y2="117.7539" gradientTransform="matrix(1 0 0 -1 0 227)">
			<stop  offset="0" style="stop-color:#DC9EA8"/>
			<stop  offset="1" style="stop-color:#948EC4"/>
		</linearGradient>
		<path class="st4" d="M213.38,109.22c-0.09-0.02-0.18-0.02-0.27,0H213.38z"/>
		<path class="st3" d="M191.48,76.28h18.47c1.53,0,2.93,0.63,3.93,1.63c1.01,1.01,1.63,2.4,1.63,3.93v7.07h-1.92v-7.12h-25.74v38.2
			h25.74v-14.45h1.92v16.61c0,1.53-0.62,2.93-1.63,3.93c-1.01,1.01-2.4,1.63-3.93,1.63h-18.47c-1.53,0-2.93-0.62-3.93-1.63
			c-1.01-1.01-1.63-2.4-1.63-3.93V81.83c0-1.53,0.62-2.93,1.63-3.93C188.56,76.89,189.95,76.28,191.48,76.28z M220.92,92.73v7.76
			c0,0.53-0.43,0.96-0.96,0.96h-5.39l-2.25,2c-0.23,0.25-0.65,0.1-0.65-0.25l-0.11-1.76h-1.65c-0.53,0-0.96-0.43-0.96-0.96v-7.76
			c0-0.53,0.43-0.96,0.96-0.96h10.06C220.49,91.77,220.92,92.2,220.92,92.73L220.92,92.73z M211.96,95.86
			c-0.27,0-0.49-0.22-0.49-0.49c0-0.27,0.22-0.49,0.49-0.49h6.34c0.27,0,0.49,0.22,0.49,0.49c0,0.27-0.22,0.49-0.49,0.49H211.96z
			 M211.96,98.49c-0.27,0-0.49-0.22-0.49-0.49c0-0.27,0.22-0.49,0.49-0.49h5.17c0.27,0,0.49,0.22,0.49,0.49
			c0,0.27-0.22,0.49-0.49,0.49H211.96z M198.39,104.84l2.55,1.78l2.4-2c-0.13-0.2-0.27-0.47-0.37-0.75c1.07,0.75,1.3,2.32,1.26,3.59
			c-0.01,0.16-0.01,0.21-0.01,0.26c-0.67,0.15-1.15,0.74-1.15,1.43c0,0.4,0.16,0.77,0.43,1.04c0.52,0.52,1.27,0.63,1.93,0.12
			c0.34-0.27,0.56-0.69,0.56-1.15c0-0.25-0.07-0.47-0.18-0.66c-0.25-0.43-0.51-0.55-0.92-0.76c-0.03-0.02,0-0.08,0.01-0.25
			c0.02-0.77-0.03-1.58-0.24-2.31c0.18,0.09,0.37,0.17,0.56,0.23c0.64,0.15,1.49,0.17,2.24,0.38c3.61,1.01,3.4,2.36,3.89,6.56
			c-0.05,0.54-0.36,0.85-0.96,0.89h-19.36c-0.6-0.05-0.91-0.36-0.96-0.89c0.28-4.63,1.55-6.31,5.82-6.93
			c0.38-0.06,0.74-0.13,1.06-0.21c-0.15,0.46-0.23,0.91-0.26,1.31c-0.17,0.13-0.6,0.27-0.74,0.44c-0.24,0.28-0.45,0.59-0.63,0.91
			c-0.03,0.05-0.05,0.11-0.05,0.17c0,0.05,0.05,0.09,0.03,0.13l-0.03,0.06c-0.43,0.83-0.71,1.74-0.57,2.14
			c0.06,0.19,0.21,0.31,0.43,0.38c0.22,0.06,0.45,0.08,0.67,0.06c0.09,0.08,0.22,0.14,0.34,0.14c0.23,0,0.41-0.18,0.41-0.41
			c0-0.06-0.01-0.12-0.04-0.17c-0.17-0.39-0.69-0.28-0.75-0.08c-0.01,0.02,0,0.03-0.01,0.05c-0.04,0-0.07,0-0.11,0
			c-0.13,0-0.26-0.01-0.38-0.05c-0.07-0.02-0.12-0.05-0.13-0.08c-0.1-0.28,0.16-1.04,0.54-1.78c0.02-0.03,0.03-0.06,0.05-0.09
			c0.07-0.03,0.13-0.08,0.17-0.15c0.16-0.29,0.35-0.56,0.56-0.81c0.07-0.08,0.27-0.2,0.43-0.25c0.08-0.03,0.13-0.05,0.2,0
			c0.09,0.07,0.17,0.14,0.24,0.23c0.22,0.25,0.42,0.53,0.59,0.83c0.04,0.07,0.13,0.08,0.17,0.15c0.43,0.7,0.68,1.51,0.62,1.82
			c-0.01,0.07-0.07,0.12-0.17,0.15c-0.14,0.04-0.29,0.06-0.43,0.06c-0.03-0.06-0.01-0.03-0.02-0.08c-0.04-0.12-0.23-0.18-0.36-0.18
			c-0.17-0.01-0.32,0.11-0.39,0.26c-0.12,0.27,0.07,0.58,0.38,0.58c0.11,0,0.23-0.05,0.32-0.12c0.02,0,0.04,0,0.06,0
			c0.2,0,0.41-0.02,0.6-0.08c0.25-0.08,0.43-0.24,0.48-0.5c0.07-0.4-0.22-1.29-0.65-2.09c0.02-0.04,0.03-0.09,0.03-0.13
			c0-0.06-0.02-0.12-0.05-0.17c-0.19-0.33-0.42-0.65-0.67-0.94c-0.14-0.15-0.44-0.2-0.47-0.4c-0.08-0.53,0.15-1.19,0.49-1.76
			c0.36-0.45,0.2-0.52,0.85-0.78c-0.18-0.13-0.35-0.29-0.51-0.43c-0.66-0.57-1.21-1.06-1.32-2.23c-0.98-0.09-1.41-2.08-0.7-2.7
			c-0.24-0.16,0.44-3.53-1.24-4.03c2.7-3.33,5.65-3.94,8.13-1.9c2.58,0.13,3.82,3.86,2.07,5.87c0.87,0.2,0.54,1.69,0.18,2.25
			c-0.21,0.32-0.5,0.54-0.83,0.52c-0.02,1.07-0.55,1.56-1.23,2.2c-0.44,0.41-0.76,0.72-1.35,0.94c-0.69,0.25-1.59,0.24-2.29,0
			c-0.27-0.09-0.62-0.23-0.86-0.38C198.66,104.36,198.53,104.62,198.39,104.84L198.39,104.84z M204.55,108.49
			c0.37,0,0.67,0.3,0.67,0.67c0,0,0,0,0,0c0,0.37-0.3,0.67-0.67,0.67s-0.67-0.3-0.67-0.67
			C203.88,108.79,204.18,108.49,204.55,108.49z M201.81,103.88c0.46-0.19,0.73-0.46,1.07-0.78c0.65-0.61,1.14-1.07,1.04-2.17
			c0-0.06,0.01-0.12,0.05-0.17c0.08-0.13,0.25-0.16,0.38-0.08c0.19,0.12,0.37,0,0.51-0.21c0.18-0.28,0.44-1.07,0.21-1.36
			c-0.06-0.08-0.24-0.05-0.58,0.21c-0.06,0.05-0.14,0.08-0.23,0.06c-0.15-0.03-0.25-0.17-0.22-0.32c0,0,0,0,0,0
			c0.24-1.4,0.12-2.27-0.19-2.85c-0.27-0.5-0.7-0.8-1.15-1.04c-1.01,0.77-1.73,0.86-2.44,0.95c-0.59,0.07-1.17,0.14-1.94,0.68
			c-0.37,0.25-0.61,0.56-0.73,0.92c-0.13,0.36-0.13,0.78-0.03,1.25c0.02,0.08,0.01,0.18-0.05,0.25c-0.1,0.12-0.27,0.13-0.39,0.04
			c-0.34-0.28-0.53-0.31-0.61-0.2c-0.32,0.38,0,1.85,0.55,1.68l0.07-0.01c0.15,0,0.28,0.12,0.28,0.27c0.03,1.14,0.53,1.59,1.15,2.12
			c0.4,0.35,0.71,0.63,1.24,0.81C200.45,104.14,201.17,104.08,201.81,103.88z M200.71,121.72c1.26,0,2.28,1.01,2.28,2.28
			c0,1.26-1.01,2.29-2.28,2.29c-1.26,0-2.29-1.01-2.29-2.29C198.42,122.75,199.43,121.72,200.71,121.72z"/>
		<g>
			<path d="M194.92,83.95c-0.04-0.02-0.09-0.03-0.14-0.03h-4.47c-0.05,0-0.1,0.01-0.14,0.03l2.37,1.64L194.92,83.95z"/>
			<path d="M192.64,85.94c-0.03,0.02-0.06,0.03-0.1,0.03c-0.03,0-0.07-0.01-0.1-0.03l-2.49-1.73c0,0.02-0.01,0.04-0.01,0.07v2.87
				c0,0.2,0.16,0.36,0.36,0.36h4.47c0.2,0,0.36-0.16,0.36-0.36v-2.87c0-0.02,0-0.05-0.01-0.07L192.64,85.94z"/>
		</g>
	</g>
	<g>
		<path class="st3" d="M58.59,97.59c-0.06-0.05-0.14-0.06-0.22-0.05c-0.08,0.01-0.14,0.06-0.18,0.12l-0.44,0.6l-0.07-0.09
			c-0.09-0.12-0.27-0.15-0.39-0.06c-0.12,0.09-0.15,0.27-0.06,0.39l0.29,0.39c0.05,0.06,0.12,0.1,0.2,0.11
			c0.08,0.01,0.16-0.02,0.21-0.08L58.63,98c0.05-0.06,0.08-0.13,0.07-0.21C58.69,97.71,58.65,97.64,58.59,97.59z M58.59,101.69
			c-0.06-0.05-0.14-0.07-0.22-0.05s-0.14,0.06-0.18,0.13l-0.44,0.6l-0.07-0.09c-0.09-0.12-0.27-0.15-0.39-0.06
			c-0.12,0.09-0.15,0.26-0.06,0.39l0.29,0.39c0.05,0.06,0.12,0.1,0.2,0.11c0.08,0.01,0.16-0.02,0.21-0.08v0l0.69-0.93
			c0.05-0.06,0.08-0.13,0.07-0.21C58.69,101.81,58.65,101.73,58.59,101.69z M58.56,105.82c-0.05-0.04-0.11-0.06-0.16-0.06
			c-0.08,0-0.15,0.03-0.21,0.1l-0.44,0.6l-0.07-0.09c-0.09-0.12-0.27-0.15-0.39-0.06c-0.12,0.09-0.15,0.26-0.06,0.39l0.29,0.39
			c0.05,0.06,0.12,0.1,0.2,0.11c0.08,0.01,0.16-0.03,0.21-0.08l0.69-0.93C58.71,106.07,58.67,105.91,58.56,105.82z M58.59,101.69
			c-0.06-0.05-0.14-0.07-0.22-0.05s-0.14,0.06-0.18,0.13l-0.44,0.6l-0.07-0.09c-0.09-0.12-0.27-0.15-0.39-0.06
			c-0.12,0.09-0.15,0.26-0.06,0.39l0.29,0.39c0.05,0.06,0.12,0.1,0.2,0.11c0.08,0.01,0.16-0.02,0.21-0.08v0l0.69-0.93
			c0.05-0.06,0.08-0.13,0.07-0.21C58.69,101.81,58.65,101.73,58.59,101.69z M58.59,97.59c-0.06-0.05-0.14-0.06-0.22-0.05
			c-0.08,0.01-0.14,0.06-0.18,0.12l-0.44,0.6l-0.07-0.09c-0.09-0.12-0.27-0.15-0.39-0.06c-0.12,0.09-0.15,0.27-0.06,0.39l0.29,0.39
			c0.05,0.06,0.12,0.1,0.2,0.11c0.08,0.01,0.16-0.02,0.21-0.08L58.63,98c0.05-0.06,0.08-0.13,0.07-0.21
			C58.69,97.71,58.65,97.64,58.59,97.59z M58.56,105.82c-0.05-0.04-0.11-0.06-0.16-0.06c-0.08,0-0.15,0.03-0.21,0.1l-0.44,0.6
			l-0.07-0.09c-0.09-0.12-0.27-0.15-0.39-0.06c-0.12,0.09-0.15,0.26-0.06,0.39l0.29,0.39c0.05,0.06,0.12,0.1,0.2,0.11
			c0.08,0.01,0.16-0.03,0.21-0.08l0.69-0.93C58.71,106.07,58.67,105.91,58.56,105.82z M67.08,105.59l-0.07,1.64l1.39-0.88
			L67.08,105.59z M75.19,93.06c-0.5-0.29-1.15-0.11-1.44,0.39h0l-1.57,2.72L74,97.22l1.57-2.72C75.86,94,75.69,93.36,75.19,93.06z
			 M70.96,98.28l-3.86,6.68l1.82,1.05l3.86-6.68L70.96,98.28z M71.9,96.65l-0.66,1.15l1.82,1.05l0.66-1.15L71.9,96.65z M72.58,94.37
			V88.7c0-0.31-0.25-0.56-0.56-0.56H55.24c-0.31,0-0.56,0.25-0.56,0.56v21.6c0,0.31,0.25,0.56,0.56,0.56h16.79
			c0.31,0,0.56-0.25,0.56-0.56v-9.51l-3.24,5.62l-2.92,1.85l0.14-3.46L72.58,94.37z M56.92,90.94c0-0.31,0.25-0.56,0.56-0.56h12.31
			c0.31,0,0.56,0.24,0.56,0.56v3.36c0,0.31-0.25,0.56-0.56,0.56H57.48c-0.31,0-0.56-0.25-0.56-0.56V90.94z M59.14,107.69h-2.42
			v-2.42h2.42V107.69z M59.14,103.6h-2.42v-2.42h2.42V103.6z M59.14,99.5h-2.42v-2.43h2.42V99.5z M65.12,107.51h-4.77
			c-0.15,0-0.28-0.12-0.28-0.28c0-0.15,0.13-0.28,0.28-0.28h4.77c0.15,0,0.28,0.12,0.28,0.28C65.4,107.38,65.27,107.51,65.12,107.51
			z M65.12,106.01h-4.77c-0.15,0-0.28-0.12-0.28-0.28c0-0.15,0.13-0.28,0.28-0.28h4.77c0.15,0,0.28,0.12,0.28,0.28
			C65.4,105.89,65.27,106.01,65.12,106.01z M65.12,103.41h-4.77c-0.15,0-0.28-0.13-0.28-0.28c0-0.15,0.13-0.28,0.28-0.28h4.77
			c0.15,0,0.28,0.13,0.28,0.28C65.4,103.28,65.27,103.41,65.12,103.41z M65.12,101.92l-4.77,0v0c-0.15,0-0.28-0.12-0.28-0.28
			c0-0.15,0.13-0.28,0.28-0.28h4.77c0.15,0,0.28,0.13,0.28,0.28C65.4,101.79,65.27,101.92,65.12,101.92z M65.23,99.31h-4.87
			c-0.15,0-0.28-0.13-0.28-0.28c0-0.15,0.13-0.28,0.28-0.28h4.87c0.15,0,0.28,0.12,0.28,0.28C65.51,99.19,65.38,99.31,65.23,99.31z
			 M60.36,97.82L60.36,97.82c-0.15,0-0.28-0.13-0.28-0.28c0-0.15,0.13-0.28,0.28-0.28h8.71c0.15,0,0.28,0.13,0.28,0.28
			c0,0.15-0.13,0.28-0.28,0.28L60.36,97.82z M57.52,98.9c0.05,0.06,0.12,0.1,0.2,0.11c0.08,0.01,0.16-0.02,0.21-0.08L58.63,98
			c0.05-0.06,0.08-0.13,0.07-0.21c-0.01-0.08-0.05-0.15-0.11-0.19c-0.06-0.05-0.14-0.06-0.22-0.05c-0.08,0.01-0.14,0.06-0.18,0.12
			l-0.44,0.6l-0.07-0.09c-0.09-0.12-0.27-0.15-0.39-0.06c-0.12,0.09-0.15,0.27-0.06,0.39L57.52,98.9z M57.52,103
			c0.05,0.06,0.12,0.1,0.2,0.11c0.08,0.01,0.16-0.02,0.21-0.08v0l0.69-0.93c0.05-0.06,0.08-0.13,0.07-0.21
			c-0.01-0.08-0.05-0.15-0.11-0.19c-0.06-0.05-0.14-0.07-0.22-0.05s-0.14,0.06-0.18,0.13l-0.44,0.6l-0.07-0.09
			c-0.09-0.12-0.27-0.15-0.39-0.06c-0.12,0.09-0.15,0.26-0.06,0.39L57.52,103z M57.52,107.1c0.05,0.06,0.12,0.1,0.2,0.11
			c0.08,0.01,0.16-0.03,0.21-0.08l0.69-0.93c0.08-0.12,0.04-0.28-0.07-0.37c-0.05-0.04-0.11-0.06-0.16-0.06
			c-0.08,0-0.15,0.03-0.21,0.1l-0.44,0.6l-0.07-0.09c-0.09-0.12-0.27-0.15-0.39-0.06c-0.12,0.09-0.15,0.26-0.06,0.39L57.52,107.1z"
			/>
	</g>
	<g>
		<g>
			<path d="M28.71,156.29c-0.31,0-0.61-0.05-0.9-0.15c-0.29-0.1-0.51-0.23-0.66-0.39l0.17-0.34c0.15,0.14,0.35,0.26,0.6,0.36
				c0.25,0.1,0.51,0.15,0.79,0.15c0.26,0,0.48-0.03,0.65-0.1c0.17-0.07,0.29-0.15,0.37-0.27s0.12-0.24,0.12-0.37
				c0-0.16-0.05-0.3-0.14-0.4c-0.09-0.1-0.22-0.18-0.37-0.24s-0.32-0.11-0.5-0.15s-0.37-0.09-0.55-0.14s-0.35-0.12-0.51-0.2
				s-0.28-0.2-0.37-0.33c-0.09-0.14-0.14-0.32-0.14-0.54c0-0.21,0.06-0.4,0.17-0.57c0.11-0.17,0.28-0.31,0.51-0.42
				c0.23-0.11,0.52-0.16,0.88-0.16c0.24,0,0.47,0.03,0.7,0.1c0.23,0.07,0.43,0.16,0.6,0.27l-0.15,0.35
				c-0.18-0.12-0.37-0.21-0.57-0.26c-0.2-0.06-0.4-0.08-0.59-0.08c-0.25,0-0.46,0.03-0.62,0.1s-0.28,0.16-0.36,0.27
				c-0.08,0.11-0.12,0.24-0.12,0.39c0,0.16,0.05,0.3,0.14,0.4c0.09,0.1,0.22,0.18,0.37,0.23s0.32,0.11,0.51,0.15
				c0.18,0.04,0.37,0.09,0.55,0.14c0.18,0.05,0.35,0.12,0.5,0.2s0.28,0.19,0.37,0.33c0.09,0.14,0.14,0.31,0.14,0.53
				c0,0.2-0.06,0.39-0.17,0.57c-0.11,0.17-0.28,0.31-0.51,0.42C29.36,156.24,29.07,156.29,28.71,156.29z"/>
			<path d="M30.66,153.46v-0.35h1.95v0.35H30.66z M32.14,156.29c-0.3,0-0.52-0.08-0.68-0.24c-0.16-0.16-0.24-0.39-0.24-0.68v-2.96
				h0.43v2.93c0,0.18,0.05,0.33,0.14,0.43c0.09,0.1,0.23,0.15,0.41,0.15c0.19,0,0.34-0.05,0.47-0.16l0.15,0.31
				c-0.08,0.08-0.19,0.13-0.3,0.17C32.39,156.27,32.27,156.29,32.14,156.29z"/>
			<path d="M34.92,156.29c-0.33,0-0.62-0.07-0.86-0.21c-0.25-0.14-0.44-0.33-0.58-0.57s-0.21-0.52-0.21-0.83
				c0-0.31,0.07-0.59,0.2-0.83c0.13-0.24,0.32-0.43,0.55-0.57c0.23-0.14,0.5-0.21,0.79-0.21c0.3,0,0.56,0.07,0.79,0.2
				c0.23,0.13,0.41,0.32,0.54,0.56c0.13,0.24,0.2,0.52,0.2,0.84c0,0.02,0,0.04,0,0.06c0,0.02,0,0.04,0,0.07h-2.74v-0.32h2.51
				l-0.17,0.13c0-0.23-0.05-0.43-0.15-0.61c-0.1-0.18-0.23-0.32-0.4-0.42s-0.36-0.15-0.58-0.15c-0.22,0-0.41,0.05-0.58,0.15
				s-0.31,0.24-0.4,0.42s-0.14,0.39-0.14,0.62v0.07c0,0.24,0.05,0.45,0.16,0.63c0.11,0.18,0.25,0.32,0.44,0.43s0.41,0.15,0.65,0.15
				c0.19,0,0.37-0.03,0.54-0.1c0.17-0.07,0.31-0.17,0.43-0.31l0.24,0.28c-0.14,0.17-0.31,0.3-0.52,0.38S35.17,156.29,34.92,156.29z"
				/>
			<path d="M37.21,157.42v-4.31h0.41v0.95l-0.04,0.63l0.06,0.64v2.1H37.21z M38.83,156.29c-0.27,0-0.52-0.06-0.74-0.19
				c-0.22-0.13-0.4-0.31-0.52-0.55s-0.19-0.53-0.19-0.87s0.06-0.63,0.19-0.87c0.13-0.24,0.3-0.42,0.52-0.54
				c0.22-0.12,0.47-0.19,0.74-0.19c0.3,0,0.57,0.07,0.81,0.2c0.24,0.13,0.43,0.32,0.56,0.56c0.14,0.24,0.2,0.52,0.2,0.84
				c0,0.32-0.07,0.6-0.2,0.84c-0.14,0.24-0.32,0.43-0.56,0.56C39.4,156.22,39.13,156.29,38.83,156.29z M38.8,155.91
				c0.22,0,0.42-0.05,0.6-0.15c0.18-0.1,0.32-0.25,0.42-0.43c0.1-0.19,0.16-0.4,0.16-0.65s-0.05-0.46-0.16-0.64
				c-0.1-0.18-0.24-0.33-0.42-0.43c-0.18-0.1-0.38-0.16-0.6-0.16s-0.42,0.05-0.6,0.16c-0.18,0.1-0.32,0.25-0.42,0.43
				c-0.1,0.18-0.15,0.4-0.15,0.64s0.05,0.46,0.15,0.65c0.1,0.19,0.24,0.33,0.42,0.43C38.38,155.86,38.58,155.91,38.8,155.91z"/>
			<path d="M43.3,156.26v-4.02l0.19,0.2h-1.18v-0.38h1.42v4.2H43.3z"/>
			<path d="M45.06,153.73c-0.09,0-0.16-0.03-0.23-0.1c-0.06-0.06-0.09-0.14-0.09-0.23c0-0.1,0.03-0.17,0.09-0.23
				c0.06-0.06,0.14-0.09,0.23-0.09c0.09,0,0.16,0.03,0.22,0.09c0.06,0.06,0.09,0.14,0.09,0.23c0,0.09-0.03,0.17-0.09,0.23
				C45.22,153.7,45.15,153.73,45.06,153.73z M45.06,156.29c-0.09,0-0.16-0.03-0.23-0.1c-0.06-0.06-0.09-0.14-0.09-0.23
				c0-0.1,0.03-0.17,0.09-0.23c0.06-0.06,0.14-0.09,0.23-0.09c0.09,0,0.16,0.03,0.22,0.09c0.06,0.06,0.09,0.14,0.09,0.23
				c0,0.09-0.03,0.17-0.09,0.23C45.22,156.25,45.15,156.29,45.06,156.29z"/>
			<path d="M47.95,156.26v-4.2h0.44v4.2H47.95z"/>
			<path d="M51.28,153.08c0.26,0,0.48,0.05,0.67,0.15c0.19,0.1,0.35,0.25,0.46,0.45s0.17,0.45,0.17,0.76v1.83h-0.43v-1.79
				c0-0.33-0.08-0.58-0.25-0.75c-0.17-0.17-0.4-0.25-0.7-0.25c-0.22,0-0.42,0.04-0.58,0.13s-0.29,0.22-0.38,0.39
				c-0.09,0.17-0.13,0.38-0.13,0.62v1.66h-0.43v-3.15h0.41v0.86l-0.07-0.16c0.1-0.23,0.26-0.41,0.48-0.54
				C50.71,153.14,50.97,153.08,51.28,153.08z"/>
			<path d="M53.23,153.46v-0.35h1.95v0.35H53.23z M54.72,156.29c-0.3,0-0.52-0.08-0.68-0.24c-0.16-0.16-0.24-0.39-0.24-0.68v-2.96
				h0.43v2.93c0,0.18,0.05,0.33,0.14,0.43c0.09,0.1,0.23,0.15,0.41,0.15c0.19,0,0.34-0.05,0.47-0.16l0.15,0.31
				c-0.08,0.08-0.19,0.13-0.3,0.17C54.97,156.27,54.85,156.29,54.72,156.29z"/>
			<path d="M57.05,156.29c-0.24,0-0.44-0.04-0.61-0.12c-0.17-0.08-0.31-0.19-0.4-0.32c-0.09-0.14-0.14-0.3-0.14-0.48
				c0-0.16,0.04-0.31,0.12-0.45c0.08-0.13,0.21-0.24,0.38-0.32c0.18-0.08,0.42-0.12,0.72-0.12h1.09v0.32h-1.07
				c-0.3,0-0.52,0.05-0.63,0.16c-0.12,0.11-0.18,0.24-0.18,0.4c0,0.18,0.07,0.32,0.21,0.43c0.14,0.11,0.34,0.16,0.59,0.16
				c0.24,0,0.45-0.06,0.62-0.17c0.17-0.11,0.3-0.27,0.38-0.48l0.1,0.29c-0.08,0.21-0.22,0.37-0.42,0.5
				C57.6,156.22,57.35,156.29,57.05,156.29z M58.14,156.26v-0.7l-0.02-0.11v-1.16c0-0.27-0.07-0.47-0.22-0.62
				c-0.15-0.14-0.37-0.22-0.67-0.22c-0.2,0-0.4,0.03-0.58,0.1c-0.18,0.07-0.34,0.16-0.47,0.27l-0.19-0.32
				c0.16-0.14,0.35-0.24,0.58-0.32c0.22-0.07,0.46-0.11,0.71-0.11c0.41,0,0.72,0.1,0.94,0.3s0.33,0.51,0.33,0.92v1.96H58.14z"/>
			<path d="M59.7,156.26v-4.45h0.43v4.45H59.7z M60.04,155.44l0.01-0.55l1.96-1.79h0.52l-1.39,1.33l-0.24,0.2L60.04,155.44z
				 M62.15,156.26l-1.31-1.64l0.28-0.33l1.56,1.97H62.15z"/>
			<path d="M64.65,156.29c-0.33,0-0.62-0.07-0.86-0.21c-0.25-0.14-0.44-0.33-0.58-0.57s-0.21-0.52-0.21-0.83
				c0-0.31,0.07-0.59,0.2-0.83c0.13-0.24,0.32-0.43,0.55-0.57c0.23-0.14,0.5-0.21,0.79-0.21c0.3,0,0.56,0.07,0.79,0.2
				c0.23,0.13,0.41,0.32,0.54,0.56c0.13,0.24,0.2,0.52,0.2,0.84c0,0.02,0,0.04,0,0.06c0,0.02,0,0.04,0,0.07h-2.74v-0.32h2.51
				l-0.17,0.13c0-0.23-0.05-0.43-0.15-0.61c-0.1-0.18-0.23-0.32-0.4-0.42s-0.36-0.15-0.58-0.15c-0.22,0-0.41,0.05-0.58,0.15
				s-0.31,0.24-0.4,0.42s-0.14,0.39-0.14,0.62v0.07c0,0.24,0.05,0.45,0.16,0.63c0.11,0.18,0.25,0.32,0.44,0.43s0.41,0.15,0.65,0.15
				c0.19,0,0.37-0.03,0.54-0.1c0.17-0.07,0.31-0.17,0.43-0.31l0.24,0.28c-0.14,0.17-0.31,0.3-0.52,0.38S64.9,156.29,64.65,156.29z"
				/>
			<path d="M69.84,156.29c-0.33,0-0.62-0.07-0.86-0.21c-0.25-0.14-0.44-0.33-0.58-0.57s-0.21-0.52-0.21-0.83
				c0-0.31,0.07-0.59,0.2-0.83c0.13-0.24,0.32-0.43,0.55-0.57c0.23-0.14,0.5-0.21,0.79-0.21c0.3,0,0.56,0.07,0.79,0.2
				c0.23,0.13,0.41,0.32,0.54,0.56c0.13,0.24,0.2,0.52,0.2,0.84c0,0.02,0,0.04,0,0.06c0,0.02,0,0.04,0,0.07h-2.74v-0.32h2.51
				l-0.17,0.13c0-0.23-0.05-0.43-0.15-0.61c-0.1-0.18-0.23-0.32-0.4-0.42s-0.36-0.15-0.58-0.15c-0.22,0-0.41,0.05-0.58,0.15
				s-0.31,0.24-0.4,0.42s-0.14,0.39-0.14,0.62v0.07c0,0.24,0.05,0.45,0.16,0.63c0.11,0.18,0.25,0.32,0.44,0.43s0.41,0.15,0.65,0.15
				c0.19,0,0.37-0.03,0.54-0.1c0.17-0.07,0.31-0.17,0.43-0.31l0.24,0.28c-0.14,0.17-0.31,0.3-0.52,0.38S70.09,156.29,69.84,156.29z"
				/>
			<path d="M72.94,156.26l-1.4-3.15h0.44l1.28,2.92h-0.21l1.3-2.92h0.42l-1.4,3.15H72.94z"/>
			<path d="M76.27,156.29c-0.24,0-0.44-0.04-0.61-0.12c-0.17-0.08-0.31-0.19-0.4-0.32c-0.09-0.14-0.14-0.3-0.14-0.48
				c0-0.16,0.04-0.31,0.12-0.45c0.08-0.13,0.21-0.24,0.38-0.32c0.18-0.08,0.42-0.12,0.72-0.12h1.09v0.32h-1.07
				c-0.3,0-0.52,0.05-0.63,0.16c-0.12,0.11-0.18,0.24-0.18,0.4c0,0.18,0.07,0.32,0.21,0.43c0.14,0.11,0.34,0.16,0.59,0.16
				c0.24,0,0.45-0.06,0.62-0.17c0.17-0.11,0.3-0.27,0.38-0.48l0.1,0.29c-0.08,0.21-0.22,0.37-0.42,0.5
				C76.82,156.22,76.57,156.29,76.27,156.29z M77.35,156.26v-0.7l-0.02-0.11v-1.16c0-0.27-0.07-0.47-0.22-0.62
				c-0.15-0.14-0.37-0.22-0.67-0.22c-0.2,0-0.4,0.03-0.58,0.1c-0.18,0.07-0.34,0.16-0.47,0.27l-0.19-0.32
				c0.16-0.14,0.35-0.24,0.58-0.32c0.22-0.07,0.46-0.11,0.71-0.11c0.41,0,0.72,0.1,0.94,0.3s0.33,0.51,0.33,0.92v1.96H77.35z"/>
			<path d="M78.92,156.26v-4.45h0.43v4.45H78.92z"/>
			<path d="M81.84,156.29c-0.27,0-0.5-0.05-0.7-0.15c-0.2-0.1-0.35-0.25-0.46-0.45c-0.11-0.2-0.17-0.45-0.17-0.75v-1.83h0.43v1.78
				c0,0.34,0.08,0.59,0.25,0.76c0.17,0.17,0.4,0.26,0.7,0.26c0.22,0,0.41-0.05,0.57-0.14c0.16-0.09,0.29-0.22,0.37-0.39
				s0.13-0.38,0.13-0.62v-1.65h0.43v3.15h-0.41v-0.86l0.07,0.16c-0.1,0.23-0.26,0.41-0.47,0.54S82.12,156.29,81.84,156.29z"/>
			<path d="M85.45,156.29c-0.24,0-0.44-0.04-0.61-0.12c-0.17-0.08-0.31-0.19-0.4-0.32c-0.09-0.14-0.14-0.3-0.14-0.48
				c0-0.16,0.04-0.31,0.12-0.45c0.08-0.13,0.21-0.24,0.38-0.32c0.18-0.08,0.42-0.12,0.72-0.12h1.09v0.32h-1.07
				c-0.3,0-0.52,0.05-0.63,0.16c-0.12,0.11-0.18,0.24-0.18,0.4c0,0.18,0.07,0.32,0.21,0.43c0.14,0.11,0.34,0.16,0.59,0.16
				c0.24,0,0.45-0.06,0.62-0.17c0.17-0.11,0.3-0.27,0.38-0.48l0.1,0.29c-0.08,0.21-0.22,0.37-0.42,0.5
				C86,156.22,85.75,156.29,85.45,156.29z M86.54,156.26v-0.7l-0.02-0.11v-1.16c0-0.27-0.07-0.47-0.22-0.62
				c-0.15-0.14-0.37-0.22-0.67-0.22c-0.2,0-0.4,0.03-0.58,0.1c-0.18,0.07-0.34,0.16-0.47,0.27l-0.19-0.32
				c0.16-0.14,0.35-0.24,0.58-0.32c0.22-0.07,0.46-0.11,0.71-0.11c0.41,0,0.72,0.1,0.94,0.3s0.33,0.51,0.33,0.92v1.96H86.54z"/>
			<path d="M87.61,153.46v-0.35h1.95v0.35H87.61z M89.1,156.29c-0.3,0-0.52-0.08-0.68-0.24c-0.16-0.16-0.24-0.39-0.24-0.68v-2.96
				h0.43v2.93c0,0.18,0.05,0.33,0.14,0.43c0.09,0.1,0.23,0.15,0.41,0.15c0.19,0,0.34-0.05,0.47-0.16l0.15,0.31
				c-0.08,0.08-0.19,0.13-0.3,0.17C89.35,156.27,89.23,156.29,89.1,156.29z"/>
			<path d="M90.76,152.41c-0.09,0-0.16-0.03-0.22-0.09c-0.06-0.06-0.09-0.13-0.09-0.22s0.03-0.15,0.09-0.21
				c0.06-0.06,0.13-0.09,0.22-0.09s0.16,0.03,0.22,0.08c0.06,0.06,0.09,0.13,0.09,0.21c0,0.09-0.03,0.16-0.09,0.22
				C90.93,152.38,90.85,152.41,90.76,152.41z M90.54,156.26v-3.15h0.43v3.15H90.54z"/>
			<path d="M93.44,156.29c-0.31,0-0.58-0.07-0.82-0.21c-0.24-0.14-0.43-0.33-0.57-0.57s-0.21-0.52-0.21-0.83
				c0-0.32,0.07-0.59,0.21-0.83s0.33-0.43,0.57-0.56c0.24-0.14,0.51-0.2,0.82-0.2c0.31,0,0.59,0.07,0.83,0.21
				c0.24,0.14,0.43,0.33,0.57,0.56c0.14,0.24,0.21,0.52,0.21,0.83c0,0.31-0.07,0.59-0.21,0.83c-0.14,0.24-0.33,0.43-0.57,0.57
				C94.02,156.22,93.75,156.29,93.44,156.29z M93.44,155.91c0.23,0,0.43-0.05,0.61-0.15c0.18-0.1,0.31-0.25,0.42-0.43
				c0.1-0.19,0.15-0.4,0.15-0.65c0-0.25-0.05-0.46-0.15-0.65c-0.1-0.18-0.24-0.33-0.42-0.43c-0.18-0.1-0.38-0.15-0.6-0.15
				c-0.22,0-0.42,0.05-0.6,0.15c-0.18,0.1-0.32,0.25-0.42,0.43c-0.1,0.18-0.16,0.4-0.16,0.65c0,0.24,0.05,0.46,0.16,0.65
				c0.1,0.19,0.24,0.33,0.42,0.43C93.02,155.86,93.22,155.91,93.44,155.91z"/>
			<path d="M97.53,153.08c0.26,0,0.48,0.05,0.67,0.15c0.19,0.1,0.35,0.25,0.46,0.45s0.17,0.45,0.17,0.76v1.83H98.4v-1.79
				c0-0.33-0.08-0.58-0.25-0.75c-0.17-0.17-0.4-0.25-0.7-0.25c-0.22,0-0.42,0.04-0.58,0.13s-0.29,0.22-0.38,0.39
				c-0.09,0.17-0.13,0.38-0.13,0.62v1.66h-0.43v-3.15h0.41v0.86l-0.07-0.16c0.1-0.23,0.26-0.41,0.48-0.54
				C96.96,153.14,97.22,153.08,97.53,153.08z"/>
		</g>
	</g>
	<g>
		<g>
			<path d="M162.61,165.65c-0.31,0-0.61-0.05-0.9-0.15c-0.29-0.1-0.51-0.23-0.66-0.39l0.17-0.34c0.15,0.14,0.35,0.26,0.6,0.36
				c0.25,0.1,0.51,0.15,0.79,0.15c0.26,0,0.48-0.03,0.65-0.1c0.17-0.07,0.29-0.15,0.37-0.27s0.12-0.24,0.12-0.37
				c0-0.16-0.05-0.3-0.14-0.4c-0.09-0.1-0.22-0.18-0.37-0.24s-0.32-0.11-0.5-0.15s-0.37-0.09-0.55-0.14s-0.35-0.12-0.51-0.2
				s-0.28-0.2-0.37-0.33c-0.09-0.14-0.14-0.32-0.14-0.54c0-0.21,0.06-0.4,0.17-0.57c0.11-0.17,0.28-0.31,0.51-0.42
				c0.23-0.11,0.52-0.16,0.88-0.16c0.24,0,0.47,0.03,0.7,0.1c0.23,0.07,0.43,0.16,0.6,0.27l-0.15,0.35
				c-0.18-0.12-0.37-0.21-0.57-0.26c-0.2-0.06-0.4-0.08-0.59-0.08c-0.25,0-0.46,0.03-0.62,0.1s-0.28,0.16-0.36,0.27
				c-0.08,0.11-0.12,0.24-0.12,0.39c0,0.16,0.05,0.3,0.14,0.4c0.09,0.1,0.22,0.18,0.37,0.23s0.32,0.11,0.51,0.15
				c0.18,0.04,0.37,0.09,0.55,0.14c0.18,0.05,0.35,0.12,0.5,0.2s0.28,0.19,0.37,0.33c0.09,0.14,0.14,0.31,0.14,0.53
				c0,0.2-0.06,0.39-0.17,0.57c-0.11,0.17-0.28,0.31-0.51,0.42C163.27,165.6,162.97,165.65,162.61,165.65z"/>
			<path d="M164.56,162.82v-0.35h1.95v0.35H164.56z M166.05,165.65c-0.3,0-0.52-0.08-0.68-0.24c-0.16-0.16-0.24-0.39-0.24-0.68
				v-2.96h0.43v2.93c0,0.18,0.05,0.33,0.14,0.43c0.09,0.1,0.23,0.15,0.41,0.15c0.19,0,0.34-0.05,0.47-0.16l0.15,0.31
				c-0.08,0.08-0.19,0.13-0.3,0.17C166.29,165.63,166.17,165.65,166.05,165.65z"/>
			<path d="M168.83,165.65c-0.33,0-0.62-0.07-0.86-0.21c-0.25-0.14-0.44-0.33-0.58-0.57s-0.21-0.52-0.21-0.83
				c0-0.31,0.07-0.59,0.2-0.83c0.13-0.24,0.32-0.43,0.55-0.57c0.23-0.14,0.5-0.21,0.79-0.21c0.3,0,0.56,0.07,0.79,0.2
				c0.23,0.13,0.41,0.32,0.54,0.56c0.13,0.24,0.2,0.52,0.2,0.84c0,0.02,0,0.04,0,0.06c0,0.02,0,0.04,0,0.07h-2.74v-0.32h2.51
				l-0.17,0.13c0-0.23-0.05-0.43-0.15-0.61c-0.1-0.18-0.23-0.32-0.4-0.42s-0.36-0.15-0.58-0.15c-0.22,0-0.41,0.05-0.58,0.15
				s-0.31,0.24-0.4,0.42s-0.14,0.39-0.14,0.62v0.07c0,0.24,0.05,0.45,0.16,0.63c0.11,0.18,0.25,0.32,0.44,0.43s0.41,0.15,0.65,0.15
				c0.19,0,0.37-0.03,0.54-0.1c0.17-0.07,0.31-0.17,0.43-0.31l0.24,0.28c-0.14,0.17-0.31,0.3-0.52,0.38S169.08,165.65,168.83,165.65
				z"/>
			<path d="M171.11,166.78v-4.31h0.41v0.95l-0.04,0.63l0.06,0.64v2.1H171.11z M172.74,165.65c-0.27,0-0.52-0.06-0.74-0.19
				c-0.22-0.13-0.4-0.31-0.52-0.55s-0.19-0.53-0.19-0.87s0.06-0.63,0.19-0.87c0.13-0.24,0.3-0.42,0.52-0.54
				c0.22-0.12,0.47-0.19,0.74-0.19c0.3,0,0.57,0.07,0.81,0.2c0.24,0.13,0.43,0.32,0.56,0.56c0.14,0.24,0.2,0.52,0.2,0.84
				c0,0.32-0.07,0.6-0.2,0.84c-0.14,0.24-0.32,0.43-0.56,0.56C173.31,165.58,173.04,165.65,172.74,165.65z M172.71,165.27
				c0.22,0,0.42-0.05,0.6-0.15c0.18-0.1,0.32-0.25,0.42-0.43c0.1-0.19,0.16-0.4,0.16-0.65s-0.05-0.46-0.16-0.64
				c-0.1-0.18-0.24-0.33-0.42-0.43c-0.18-0.1-0.38-0.16-0.6-0.16s-0.42,0.05-0.6,0.16c-0.18,0.1-0.32,0.25-0.42,0.43
				c-0.1,0.18-0.15,0.4-0.15,0.64s0.05,0.46,0.15,0.65c0.1,0.19,0.24,0.33,0.42,0.43C172.28,165.22,172.49,165.27,172.71,165.27z"/>
			<path d="M176.39,165.62v-0.31l1.75-1.71c0.16-0.16,0.28-0.29,0.36-0.41s0.13-0.23,0.16-0.33c0.03-0.1,0.04-0.2,0.04-0.29
				c0-0.24-0.08-0.44-0.25-0.58s-0.41-0.21-0.73-0.21c-0.25,0-0.47,0.04-0.66,0.11c-0.19,0.08-0.35,0.19-0.49,0.35l-0.31-0.26
				c0.16-0.19,0.37-0.34,0.63-0.44c0.26-0.1,0.54-0.16,0.86-0.16c0.28,0,0.53,0.04,0.74,0.14c0.21,0.09,0.37,0.22,0.48,0.39
				c0.11,0.17,0.17,0.37,0.17,0.61c0,0.14-0.02,0.27-0.06,0.4c-0.04,0.13-0.11,0.27-0.2,0.42c-0.1,0.15-0.24,0.31-0.43,0.5
				l-1.6,1.57l-0.12-0.17h2.6v0.38H176.39z"/>
			<path d="M180.2,163.09c-0.09,0-0.16-0.03-0.23-0.1c-0.06-0.06-0.09-0.14-0.09-0.23c0-0.1,0.03-0.17,0.09-0.23
				c0.06-0.06,0.14-0.09,0.23-0.09c0.09,0,0.16,0.03,0.22,0.09c0.06,0.06,0.09,0.14,0.09,0.23c0,0.09-0.03,0.17-0.09,0.23
				C180.37,163.06,180.29,163.09,180.2,163.09z M180.2,165.65c-0.09,0-0.16-0.03-0.23-0.1c-0.06-0.06-0.09-0.14-0.09-0.23
				c0-0.1,0.03-0.17,0.09-0.23c0.06-0.06,0.14-0.09,0.23-0.09c0.09,0,0.16,0.03,0.22,0.09c0.06,0.06,0.09,0.14,0.09,0.23
				c0,0.09-0.03,0.17-0.09,0.23C180.37,165.62,180.29,165.65,180.2,165.65z"/>
			<path d="M183.1,165.62v-4.2h1.57c0.36,0,0.66,0.06,0.92,0.17c0.26,0.11,0.45,0.28,0.59,0.49c0.14,0.21,0.21,0.47,0.21,0.78
				c0,0.3-0.07,0.55-0.21,0.76c-0.14,0.21-0.33,0.38-0.59,0.5c-0.26,0.12-0.56,0.17-0.92,0.17h-1.33l0.2-0.21v1.54H183.1z
				 M183.54,164.12l-0.2-0.22h1.31c0.42,0,0.74-0.09,0.96-0.27c0.22-0.18,0.33-0.44,0.33-0.77c0-0.34-0.11-0.6-0.33-0.78
				c-0.22-0.18-0.54-0.28-0.96-0.28h-1.31l0.2-0.21V164.12z"/>
			<path d="M187.31,165.62v-3.15h0.41v0.86l-0.04-0.15c0.09-0.24,0.24-0.42,0.44-0.55s0.47-0.19,0.77-0.19v0.41
				c-0.02,0-0.03,0-0.05,0s-0.03,0-0.05,0c-0.33,0-0.59,0.1-0.78,0.3s-0.28,0.49-0.28,0.86v1.61H187.31z"/>
			<path d="M191.06,165.65c-0.33,0-0.62-0.07-0.86-0.21c-0.25-0.14-0.44-0.33-0.58-0.57s-0.21-0.52-0.21-0.83
				c0-0.31,0.07-0.59,0.2-0.83c0.13-0.24,0.32-0.43,0.55-0.57c0.23-0.14,0.5-0.21,0.79-0.21c0.3,0,0.56,0.07,0.79,0.2
				c0.23,0.13,0.41,0.32,0.54,0.56c0.13,0.24,0.2,0.52,0.2,0.84c0,0.02,0,0.04,0,0.06c0,0.02,0,0.04,0,0.07h-2.74v-0.32h2.51
				l-0.17,0.13c0-0.23-0.05-0.43-0.15-0.61c-0.1-0.18-0.23-0.32-0.4-0.42s-0.36-0.15-0.58-0.15c-0.22,0-0.41,0.05-0.58,0.15
				s-0.31,0.24-0.4,0.42s-0.14,0.39-0.14,0.62v0.07c0,0.24,0.05,0.45,0.16,0.63c0.11,0.18,0.25,0.32,0.44,0.43s0.41,0.15,0.65,0.15
				c0.19,0,0.37-0.03,0.54-0.1c0.17-0.07,0.31-0.17,0.43-0.31l0.24,0.28c-0.14,0.17-0.31,0.3-0.52,0.38S191.31,165.65,191.06,165.65
				z"/>
			<path d="M194.19,165.65c-0.26,0-0.51-0.04-0.74-0.11c-0.23-0.07-0.41-0.17-0.55-0.28l0.19-0.34c0.13,0.1,0.29,0.18,0.49,0.25
				c0.2,0.07,0.41,0.11,0.63,0.11c0.3,0,0.52-0.05,0.65-0.14c0.13-0.09,0.2-0.22,0.2-0.38c0-0.12-0.04-0.21-0.11-0.27
				c-0.07-0.07-0.17-0.12-0.29-0.15c-0.12-0.03-0.25-0.06-0.4-0.09c-0.15-0.02-0.3-0.05-0.44-0.08s-0.28-0.08-0.4-0.14
				c-0.12-0.06-0.22-0.15-0.29-0.25c-0.07-0.11-0.11-0.25-0.11-0.43c0-0.17,0.05-0.33,0.14-0.46c0.1-0.14,0.24-0.24,0.42-0.32
				c0.19-0.08,0.41-0.12,0.68-0.12c0.2,0,0.41,0.03,0.61,0.08c0.2,0.05,0.37,0.12,0.5,0.21l-0.19,0.34
				c-0.14-0.1-0.29-0.17-0.45-0.21c-0.16-0.04-0.32-0.06-0.48-0.06c-0.28,0-0.49,0.05-0.63,0.15c-0.13,0.1-0.2,0.22-0.2,0.38
				c0,0.12,0.04,0.21,0.11,0.28c0.07,0.07,0.17,0.12,0.29,0.16c0.12,0.04,0.26,0.07,0.4,0.09c0.15,0.02,0.29,0.05,0.44,0.09
				s0.28,0.08,0.4,0.14c0.12,0.06,0.22,0.14,0.29,0.25c0.07,0.11,0.11,0.25,0.11,0.42c0,0.18-0.05,0.34-0.15,0.48
				c-0.1,0.13-0.25,0.24-0.44,0.31S194.47,165.65,194.19,165.65z"/>
			<path d="M197.58,165.65c-0.31,0-0.59-0.07-0.84-0.21c-0.25-0.14-0.44-0.33-0.58-0.57s-0.21-0.52-0.21-0.83
				c0-0.32,0.07-0.59,0.21-0.83s0.33-0.43,0.58-0.56c0.25-0.14,0.52-0.2,0.84-0.2c0.27,0,0.51,0.05,0.73,0.16
				c0.22,0.1,0.39,0.26,0.51,0.47l-0.32,0.22c-0.11-0.16-0.24-0.28-0.4-0.35c-0.16-0.08-0.33-0.11-0.52-0.11
				c-0.22,0-0.43,0.05-0.61,0.15c-0.18,0.1-0.32,0.25-0.43,0.43c-0.1,0.18-0.16,0.4-0.16,0.65s0.05,0.46,0.16,0.65
				c0.1,0.18,0.25,0.33,0.43,0.43s0.38,0.15,0.61,0.15c0.19,0,0.36-0.04,0.52-0.11s0.29-0.19,0.4-0.35l0.32,0.22
				c-0.12,0.2-0.29,0.36-0.51,0.46C198.09,165.59,197.85,165.65,197.58,165.65z"/>
			<path d="M199.65,165.62v-3.15h0.41v0.86l-0.04-0.15c0.09-0.24,0.24-0.42,0.44-0.55s0.47-0.19,0.77-0.19v0.41
				c-0.02,0-0.03,0-0.05,0c-0.02,0-0.03,0-0.05,0c-0.33,0-0.59,0.1-0.78,0.3s-0.28,0.49-0.28,0.86v1.61H199.65z"/>
			<path d="M202.27,161.77c-0.09,0-0.16-0.03-0.22-0.09c-0.06-0.06-0.09-0.13-0.09-0.22s0.03-0.15,0.09-0.21
				c0.06-0.06,0.13-0.09,0.22-0.09s0.16,0.03,0.22,0.08c0.06,0.06,0.09,0.13,0.09,0.21c0,0.09-0.03,0.16-0.09,0.22
				C202.44,161.74,202.36,161.77,202.27,161.77z M202.06,165.62v-3.15h0.43v3.15H202.06z"/>
			<path d="M203.67,166.78v-4.31h0.41v0.95l-0.04,0.63l0.06,0.64v2.1H203.67z M205.3,165.65c-0.27,0-0.52-0.06-0.74-0.19
				c-0.22-0.13-0.39-0.31-0.52-0.55s-0.2-0.53-0.2-0.87s0.06-0.63,0.19-0.87c0.13-0.24,0.3-0.42,0.52-0.54s0.47-0.19,0.74-0.19
				c0.3,0,0.57,0.07,0.81,0.2c0.24,0.13,0.43,0.32,0.56,0.56s0.2,0.52,0.2,0.84c0,0.32-0.07,0.6-0.2,0.84
				c-0.14,0.24-0.32,0.43-0.56,0.56C205.87,165.58,205.6,165.65,205.3,165.65z M205.27,165.27c0.22,0,0.42-0.05,0.6-0.15
				c0.18-0.1,0.32-0.25,0.42-0.43c0.1-0.19,0.16-0.4,0.16-0.65s-0.05-0.46-0.16-0.64c-0.1-0.18-0.24-0.33-0.42-0.43
				c-0.18-0.1-0.38-0.16-0.6-0.16c-0.22,0-0.42,0.05-0.6,0.16c-0.18,0.1-0.32,0.25-0.42,0.43c-0.1,0.18-0.15,0.4-0.15,0.64
				s0.05,0.46,0.15,0.65c0.1,0.19,0.24,0.33,0.42,0.43S205.04,165.27,205.27,165.27z"/>
			<path d="M207.25,162.82v-0.35h1.95v0.35H207.25z M208.73,165.65c-0.3,0-0.52-0.08-0.68-0.24s-0.24-0.39-0.24-0.68v-2.96h0.43
				v2.93c0,0.18,0.05,0.33,0.14,0.43c0.09,0.1,0.23,0.15,0.41,0.15c0.19,0,0.34-0.05,0.47-0.16l0.15,0.31
				c-0.08,0.08-0.18,0.13-0.3,0.17C208.98,165.63,208.86,165.65,208.73,165.65z"/>
			<path d="M210.39,161.77c-0.09,0-0.16-0.03-0.22-0.09c-0.06-0.06-0.09-0.13-0.09-0.22s0.03-0.15,0.09-0.21
				c0.06-0.06,0.13-0.09,0.22-0.09s0.16,0.03,0.22,0.08c0.06,0.06,0.09,0.13,0.09,0.21c0,0.09-0.03,0.16-0.09,0.22
				C210.56,161.74,210.48,161.77,210.39,161.77z M210.17,165.62v-3.15h0.43v3.15H210.17z"/>
			<path d="M213.07,165.65c-0.31,0-0.58-0.07-0.82-0.21c-0.24-0.14-0.43-0.33-0.57-0.57c-0.14-0.24-0.21-0.52-0.21-0.83
				c0-0.32,0.07-0.59,0.21-0.83c0.14-0.24,0.33-0.43,0.57-0.56c0.24-0.14,0.51-0.2,0.82-0.2c0.31,0,0.59,0.07,0.83,0.21
				c0.24,0.14,0.43,0.33,0.57,0.56c0.14,0.24,0.21,0.52,0.21,0.83c0,0.31-0.07,0.59-0.21,0.83s-0.33,0.43-0.57,0.57
				C213.66,165.58,213.38,165.65,213.07,165.65z M213.07,165.27c0.23,0,0.43-0.05,0.61-0.15s0.31-0.25,0.42-0.43
				c0.1-0.19,0.15-0.4,0.15-0.65c0-0.25-0.05-0.46-0.15-0.65c-0.1-0.18-0.24-0.33-0.42-0.43c-0.18-0.1-0.38-0.15-0.6-0.15
				c-0.22,0-0.42,0.05-0.6,0.15c-0.18,0.1-0.32,0.25-0.42,0.43c-0.1,0.18-0.16,0.4-0.16,0.65c0,0.24,0.05,0.46,0.16,0.65
				c0.1,0.19,0.24,0.33,0.42,0.43S212.85,165.27,213.07,165.27z"/>
			<path d="M217.16,162.44c0.26,0,0.48,0.05,0.67,0.15c0.19,0.1,0.35,0.25,0.46,0.45c0.11,0.2,0.17,0.45,0.17,0.76v1.83h-0.43v-1.79
				c0-0.33-0.08-0.58-0.25-0.75c-0.17-0.17-0.4-0.25-0.7-0.25c-0.22,0-0.42,0.04-0.58,0.13s-0.29,0.22-0.38,0.39
				c-0.09,0.17-0.13,0.38-0.13,0.62v1.66h-0.43v-3.15h0.41v0.86l-0.07-0.16c0.1-0.23,0.26-0.41,0.48-0.54
				C216.59,162.5,216.85,162.44,217.16,162.44z"/>
			<path d="M218.86,166.22l1.98-5.65h0.39l-1.98,5.65H218.86z"/>
			<path d="M221.03,165.62l1.92-4.2h0.44l1.92,4.2h-0.47l-1.76-3.94h0.18l-1.76,3.94H221.03z M221.79,164.5l0.13-0.36h2.44
				l0.13,0.36H221.79z"/>
			<path d="M225.92,166.78v-4.31h0.41v0.95l-0.04,0.63l0.06,0.64v2.1H225.92z M227.54,165.65c-0.27,0-0.52-0.06-0.74-0.19
				c-0.22-0.13-0.39-0.31-0.52-0.55s-0.2-0.53-0.2-0.87s0.06-0.63,0.19-0.87c0.13-0.24,0.3-0.42,0.52-0.54s0.47-0.19,0.74-0.19
				c0.3,0,0.57,0.07,0.81,0.2c0.24,0.13,0.43,0.32,0.56,0.56s0.2,0.52,0.2,0.84c0,0.32-0.07,0.6-0.2,0.84
				c-0.14,0.24-0.32,0.43-0.56,0.56C228.11,165.58,227.84,165.65,227.54,165.65z M227.51,165.27c0.22,0,0.42-0.05,0.6-0.15
				c0.18-0.1,0.32-0.25,0.42-0.43c0.1-0.19,0.16-0.4,0.16-0.65s-0.05-0.46-0.16-0.64c-0.1-0.18-0.24-0.33-0.42-0.43
				c-0.18-0.1-0.38-0.16-0.6-0.16c-0.22,0-0.42,0.05-0.6,0.16c-0.18,0.1-0.32,0.25-0.42,0.43c-0.1,0.18-0.15,0.4-0.15,0.64
				s0.05,0.46,0.15,0.65c0.1,0.19,0.24,0.33,0.42,0.43S227.29,165.27,227.51,165.27z"/>
			<path d="M229.99,166.78v-4.31h0.41v0.95l-0.04,0.63l0.06,0.64v2.1H229.99z M231.61,165.65c-0.27,0-0.52-0.06-0.74-0.19
				s-0.4-0.31-0.53-0.55s-0.19-0.53-0.19-0.87s0.06-0.63,0.19-0.87c0.13-0.24,0.3-0.42,0.52-0.54c0.22-0.12,0.47-0.19,0.74-0.19
				c0.3,0,0.57,0.07,0.81,0.2c0.24,0.13,0.42,0.32,0.56,0.56c0.14,0.24,0.2,0.52,0.2,0.84c0,0.32-0.07,0.6-0.2,0.84
				c-0.14,0.24-0.32,0.43-0.56,0.56S231.91,165.65,231.61,165.65z M231.58,165.27c0.22,0,0.42-0.05,0.6-0.15s0.32-0.25,0.42-0.43
				c0.1-0.19,0.16-0.4,0.16-0.65s-0.05-0.46-0.16-0.64c-0.1-0.18-0.24-0.33-0.42-0.43c-0.18-0.1-0.38-0.16-0.6-0.16
				c-0.22,0-0.42,0.05-0.6,0.16c-0.18,0.1-0.32,0.25-0.42,0.43c-0.1,0.18-0.15,0.4-0.15,0.64s0.05,0.46,0.15,0.65
				c0.1,0.19,0.24,0.33,0.42,0.43C231.16,165.22,231.36,165.27,231.58,165.27z"/>
			<path d="M234.05,165.62v-3.15h0.41v0.86l-0.04-0.15c0.09-0.24,0.24-0.42,0.44-0.55s0.47-0.19,0.77-0.19v0.41
				c-0.02,0-0.03,0-0.05,0c-0.02,0-0.03,0-0.05,0c-0.33,0-0.59,0.1-0.78,0.3c-0.19,0.2-0.28,0.49-0.28,0.86v1.61H234.05z"/>
			<path d="M237.74,165.65c-0.31,0-0.58-0.07-0.82-0.21c-0.24-0.14-0.43-0.33-0.57-0.57c-0.14-0.24-0.21-0.52-0.21-0.83
				c0-0.32,0.07-0.59,0.21-0.83c0.14-0.24,0.33-0.43,0.57-0.56c0.24-0.14,0.51-0.2,0.82-0.2c0.31,0,0.59,0.07,0.83,0.21
				c0.24,0.14,0.43,0.33,0.57,0.56c0.14,0.24,0.21,0.52,0.21,0.83c0,0.31-0.07,0.59-0.21,0.83c-0.14,0.24-0.33,0.43-0.57,0.57
				C238.33,165.58,238.05,165.65,237.74,165.65z M237.74,165.27c0.23,0,0.43-0.05,0.61-0.15c0.18-0.1,0.32-0.25,0.42-0.43
				c0.1-0.19,0.15-0.4,0.15-0.65c0-0.25-0.05-0.46-0.15-0.65c-0.1-0.18-0.24-0.33-0.42-0.43c-0.18-0.1-0.38-0.15-0.6-0.15
				s-0.42,0.05-0.6,0.15c-0.18,0.1-0.32,0.25-0.42,0.43c-0.1,0.18-0.16,0.4-0.16,0.65c0,0.24,0.05,0.46,0.16,0.65
				c0.1,0.19,0.24,0.33,0.42,0.43C237.32,165.22,237.52,165.27,237.74,165.27z"/>
			<path d="M241.03,165.62l-1.4-3.15h0.44l1.28,2.92h-0.21l1.3-2.92h0.42l-1.4,3.15H241.03z"/>
			<path d="M244.36,165.65c-0.24,0-0.44-0.04-0.61-0.12c-0.17-0.08-0.31-0.19-0.4-0.32s-0.14-0.3-0.14-0.48
				c0-0.16,0.04-0.31,0.12-0.45c0.08-0.13,0.21-0.24,0.38-0.32c0.18-0.08,0.42-0.12,0.72-0.12h1.09v0.32h-1.07
				c-0.3,0-0.51,0.05-0.63,0.16c-0.12,0.11-0.18,0.24-0.18,0.4c0,0.18,0.07,0.32,0.21,0.43c0.14,0.11,0.34,0.16,0.59,0.16
				c0.24,0,0.45-0.06,0.62-0.17c0.17-0.11,0.3-0.27,0.38-0.48l0.1,0.29c-0.08,0.21-0.22,0.37-0.42,0.5S244.66,165.65,244.36,165.65z
				 M245.45,165.62v-0.7l-0.02-0.11v-1.16c0-0.27-0.08-0.47-0.22-0.62c-0.15-0.14-0.37-0.22-0.67-0.22c-0.2,0-0.4,0.03-0.58,0.1
				c-0.18,0.07-0.34,0.16-0.47,0.27l-0.19-0.32c0.16-0.14,0.35-0.24,0.58-0.32c0.22-0.07,0.46-0.11,0.71-0.11
				c0.41,0,0.72,0.1,0.94,0.3c0.22,0.2,0.33,0.51,0.33,0.92v1.96H245.45z"/>
			<path d="M247.01,165.62v-4.45h0.43v4.45H247.01z"/>
		</g>
	</g>
</g>
</svg>
